<?xml version="1.0" encoding="utf-8"?>
<!-- Generator: Adobe Illustrator 21.1.0, SVG Export Plug-In . SVG Version: 6.00 Build 0)  -->
<svg version="1.1" id="ks-solLOGO" xmlns="http://www.w3.org/2000/svg" xmlns:xlink="http://www.w3.org/1999/xlink" x="0px" y="0px"
	 viewBox="0 0 580.2 99.4" style="enable-background:new 0 0 580.2 99.4;" xml:space="preserve">
<style type="text/css">
	.st0{fill:#FFFFFF;}
	.st1{fill:#009A63;}
	.st2{fill:#EF8200;}
	.st3{fill:#004097;}
</style>
<g>
	<g>
		<path d="M50.5,88.2c3.3,0,5,2.3,4.5,5.5c-0.6,3.1-3.3,5.5-6.4,5.5s-5-2.3-4.5-5.5C44.5,90.5,47.2,88.2,50.5,88.2z M48.9,96.5
			c1.6,0,2.3-1.6,2.7-2.8c0.2-1.3,0-3-1.6-3s-2.3,1.6-2.5,3C47.2,95.1,47.4,96.5,48.9,96.5z"/>
		<path d="M57.5,84.9H61l-2.5,14.2H55L57.5,84.9z"/>
		<path d="M70.7,99.1h-3.3l0.3-1.4l0,0c-0.8,1.1-2.2,1.7-3.4,1.7c-3,0-3.6-1.7-3.1-4.4l1.1-6.3h3.4l-1.1,5.9
			c-0.3,1.4,0.3,1.9,1.4,1.9c0.8,0,1.9-0.5,2.2-2.3l0.9-5.6h3.4L70.7,99.1z"/>
		<path d="M78.9,91h-2l-0.8,4.7c-0.2,0.8,0.3,0.9,1.1,0.9c0.3,0,0.6,0,0.9,0l-0.5,2.5c-0.6,0-1.3,0.2-1.9,0.2c-3,0-3.4-0.8-3-3.6
			l0.8-4.7l0.9-5.3H78l-0.6,3.1h2L78.9,91z"/>
		<path d="M80.5,88.8h3.4L82,99.1h-3.4L80.5,88.8z M84.1,87.6h-3.4l0.5-2.7h3.4L84.1,87.6z"/>
		<path d="M90.5,88.2c3.3,0,5,2.3,4.5,5.5c-0.6,3.1-3.3,5.5-6.4,5.5c-3.3,0-5-2.3-4.5-5.5S87.2,88.2,90.5,88.2z M88.9,96.5
			c1.6,0,2.3-1.6,2.7-2.8c0.2-1.3,0-3-1.6-3s-2.3,1.6-2.5,3C87.2,95.1,87.4,96.5,88.9,96.5z"/>
		<path d="M96.4,88.8h3.3l-0.2,1.1l0,0c0.8-1.1,2.3-1.7,3.6-1.7c3.4,0,3.3,2.5,3,4.1l-1.3,7h-3.3l0.9-5.3c0.3-1.4,0.6-2.8-1.3-2.8
			c-1.3,0-2,1.1-2.2,2.2L98,99.3h-3.4L96.4,88.8z"/>
		<path d="M110.4,95.4c-0.2,0.5,0,0.9,0.3,1.1c0.3,0.3,0.8,0.3,1.3,0.3c0.6,0,1.7-0.3,1.7-1.1c0.2-0.8-0.9-0.9-1.4-1.1
			c-2-0.5-4.7-0.6-4.2-3.4c0.5-2.5,3.3-3.1,5.3-3.1c2.3,0,4.5,0.6,4.2,3.3h-3.1c0-0.5,0-0.8-0.3-0.9c-0.3-0.2-0.6-0.3-1.1-0.3
			c-0.6,0-1.4,0-1.6,0.8c-0.2,0.9,2,1.1,3.6,1.6c2,0.5,2.3,1.9,2.2,2.8c-0.5,2.8-3.3,3.8-5.6,3.8c-2.5,0-4.8-0.8-4.4-3.8L110.4,95.4
			L110.4,95.4z"/>
		<path d="M2.5,84.7h3.8l-1.1,6.1l5.8-5.9h4.2l-6.1,6.3l4.1,7.8H8.8L5,91.3L3.6,99H0L2.5,84.7z"/>
		<path d="M17.7,94.3c-0.2,0.6,0.2,1.1,0.5,1.6c0.3,0.3,0.9,0.5,1.6,0.5c0.9,0,2.2-0.3,2.3-1.4c0.2-1.1-1.1-1.3-1.9-1.4
			c-2.7-0.6-5.8-0.8-5.2-4.4c0.6-3.3,3.9-4.4,6.6-4.4c3,0,5.6,1.1,5.2,4.5H23c0.2-0.6,0-0.9-0.3-1.3c-0.3-0.2-0.8-0.3-1.4-0.3
			c-0.8,0-1.9,0-2,1.1c-0.2,1.3,2.2,1.6,4.2,1.9c2.7,0.6,3,2.5,2.8,3.6c-0.6,3.6-3.9,4.8-6.9,4.8c-3.3,0-5.6-1.1-5.5-4.8L17.7,94.3
			L17.7,94.3z"/>
		<path d="M34.5,94.3c-0.2,0.6,0.2,1.1,0.5,1.6c0.3,0.3,0.9,0.5,1.6,0.5c0.9,0,2.2-0.3,2.3-1.4c0.2-1.1-1.1-1.3-1.9-1.4
			c-2.7-0.6-5.8-0.8-5.2-4.4c0.6-3.3,3.9-4.4,6.6-4.4c3,0,5.6,1.1,5.2,4.5h-3.8c0.2-0.6,0-0.9-0.3-1.3c-0.3-0.2-0.8-0.3-1.4-0.3
			c-0.8,0-1.9,0-2,1.1c-0.2,1.3,2.2,1.6,4.2,1.9c2.7,0.6,3,2.5,2.8,3.6c-0.6,3.6-3.9,4.8-6.9,4.8c-3.3,0-5.6-1.1-5.5-4.8L34.5,94.3
			L34.5,94.3z"/>
	</g>
	<g>
		<g>
			<g>
				<path class="st0" d="M70.2,44.7c-6.7-4.8-13.3-9.1-18.9-12.2c2.5-1.4,5.2-3,7.8-4.7c13-8.3,22.2-16.9,20.6-19.4
					C78.1,6.1,66.6,10.7,53.6,19c-4.5,3-8.6,5.9-11.9,8.6C43,12.1,42,0.5,39.4,0c-3.3-0.6-8.1,16.1-10.8,37.2
					c-2.7,21.3-2.2,38.8,1.1,39.4s8.1-16.1,10.8-37.2v-0.2c5.2,5.2,12.3,11.3,20.8,17.4c18.3,13.3,35,21.3,37.5,18
					S88.5,58,70.2,44.7z"/>
			</g>
		</g>
		<g>
			<g>
				<g>
					<path class="st1" d="M32.7,26.7c-0.9,1.1,0.2,3.6,2.7,6.9c0.5-0.5,1.1-1.1,1.6-1.7c-2-1.9-2.9-3.3-2.5-3.9
						c0.5-0.6,1.9-0.5,4.1,0.2c0-0.5,0.2-0.9,0.2-1.3C35.6,25.8,33.5,25.7,32.7,26.7z"/>
					<path class="st1" d="M47,31.9c0.5-0.3,0.9-0.6,1.3-0.9c-2-1.1-3.9-1.9-5.6-2.7c-0.5,0.3-0.8,0.6-1.3,0.9
						C43.3,29.9,45,30.8,47,31.9z"/>
					<path class="st1" d="M70.2,44.7c-6.7-4.8-13.3-9.1-18.9-12.2c-0.5,0.3-1.1,0.6-1.6,0.8c0.8,0.5,1.6,0.9,2.2,1.4
						C60.5,40,66.7,45.5,65.7,47c-0.9,1.6-8.8-1.4-17.4-6.7c-2-1.3-3.8-2.5-5.5-3.6c-0.8,0.3-1.6,0.6-2.2,0.9c0,0.6-0.2,1.1-0.2,1.7
						c5.2,5.2,12.3,11.3,20.8,17.4c18.3,13.3,35,21.3,37.5,18C101.3,71.3,88.5,58,70.2,44.7z"/>
					<path class="st1" d="M41,35.7c0.2,0,0.2-0.2,0.3-0.2c-0.2,0-0.2-0.2-0.3-0.2C41,35.3,41,35.5,41,35.7z"/>
					<path class="st1" d="M37.8,32.7L37.8,32.7c-0.6,0.6-1.3,1.3-1.7,1.7c0.3,0.5,0.6,0.8,1.1,1.3C37.4,34.7,37.7,33.6,37.8,32.7z"
						/>
					<path class="st2" d="M41.6,29.2L41.6,29.2L41.6,29.2z"/>
					<path class="st2" d="M37.8,32.5c0.2-0.6,0.3-1.3,0.3-1.7c-0.5,0.3-0.8,0.8-1.3,1.1C37.2,32.1,37.5,32.4,37.8,32.5L37.8,32.5z"
						/>
					<path class="st2" d="M41.3,35.5c0.5,0.5,1.1,0.8,1.7,1.3c2-0.9,4.4-2,6.9-3.3C49,33,48,32.4,47.2,31.9
						C45,33.3,43,34.6,41.3,35.5z"/>
					<path class="st2" d="M42.8,28.3c0.8-0.6,1.7-1.3,2.5-1.9c6.7-4.8,12.8-7.8,13.8-6.6c0.9,1.3-3.9,6.3-10.6,11.1l0,0
						c0.9,0.5,1.9,1.1,3,1.6c2.5-1.4,5.2-3,7.8-4.7c12.8-8.3,22-16.9,20.5-19.4C78.2,6.1,66.7,10.7,53.7,19c-4.5,3-8.6,5.9-11.9,8.6
						c0,0,0,0,0,0.2C42,28,42.4,28.2,42.8,28.3z"/>
					<path class="st2" d="M34.7,37.4c-0.3-0.5,0.2-1.6,1.4-3c-0.3-0.3-0.5-0.6-0.6-0.8c-2,2.3-3,4.1-2.5,5c0.5,0.6,1.6,0.8,3.3,0.5
						c0.2-0.5,0.3-0.9,0.5-1.4C35.6,37.8,35,37.8,34.7,37.4z"/>
					<path class="st1" d="M41.6,29.2c0.3-0.3,0.8-0.6,1.3-0.9c-0.3-0.2-0.8-0.3-1.1-0.5C41.6,28.3,41.6,28.8,41.6,29.2L41.6,29.2z"
						/>
					<path class="st1" d="M37.8,32.5c-0.3-0.3-0.5-0.5-0.8-0.8c-0.6,0.6-1.1,1.1-1.6,1.7c0.2,0.3,0.5,0.6,0.6,0.8
						C36.6,33.9,37,33.3,37.8,32.5z"/>
					<path class="st1" d="M41,35.7c0,0.6-0.2,1.3-0.2,1.9c0.8-0.3,1.4-0.6,2.2-0.9c-0.6-0.5-1.1-0.8-1.7-1.3
						C41.1,35.5,41.1,35.7,41,35.7z"/>
					<path class="st2" d="M47,31.9c0.9,0.5,1.7,0.9,2.7,1.6c0.5-0.3,0.9-0.6,1.6-0.8c-0.9-0.6-2-1.1-3-1.6
						C48,31.3,47.5,31.6,47,31.9z"/>
					<path class="st3" d="M40.5,28.8c-0.6-0.3-1.3-0.5-1.7-0.6c-0.2,0.9-0.3,1.7-0.5,2.7C38.9,30.2,39.7,29.4,40.5,28.8z"/>
					<path class="st3" d="M37.8,32.7c0.9,0.8,2,1.7,3.1,2.7c0.2-2,0.5-4.1,0.6-6.1C40.2,30.3,38.9,31.4,37.8,32.7
						C37.8,32.5,37.8,32.5,37.8,32.7z"/>
					<path class="st3" d="M39.4,38.2c-1.1,0.5-2.2,0.6-3.1,0.9c-1.4,4.8-2.8,7.8-3.9,7.7c-1.9-0.5-2-10.8-0.2-23.3
						c1.9-12.5,5-22.4,6.9-21.9s2,10.8,0.2,23.3c-0.2,0.6-0.2,1.4-0.3,2c0.8,0.3,1.7,0.6,2.7,0.9l0,0C43,12.2,42,0.6,39.4,0.1
						c-3.4-0.6-8.3,16.2-11,37.3c-2.5,21.1-2,38.6,1.3,39.2s8.1-16.1,10.8-37.2v-0.2C40.2,38.9,39.7,38.5,39.4,38.2z"/>
					<path class="st3" d="M36.7,37.5c0.5-0.2,0.9-0.3,1.6-0.6c-0.5-0.5-0.8-0.8-1.1-1.3C37,36.3,36.9,36.9,36.7,37.5z"/>
					<path class="st3" d="M40.5,28.8c0.3-0.3,0.8-0.6,1.1-0.9c-0.9-0.3-1.9-0.8-2.7-0.9c0,0.5-0.2,0.9-0.2,1.3
						C39.2,28.3,39.9,28.5,40.5,28.8z"/>
					<path class="st1" d="M39.4,38.2c0.3,0.3,0.8,0.8,1.1,1.1c0-0.6,0.2-1.1,0.2-1.7C40.3,37.8,39.9,38,39.4,38.2z"/>
					<path class="st1" d="M37.8,32.7c-0.2,1.1-0.5,2-0.6,3c0.3,0.5,0.8,0.8,1.1,1.3c0.8-0.3,1.7-0.8,2.7-1.3c0-0.2,0-0.3,0-0.5
						C39.9,34.4,38.8,33.5,37.8,32.7z"/>
					<path class="st2" d="M36.7,37.5c-0.2,0.5-0.3,0.9-0.5,1.4c0.9-0.2,1.9-0.5,3.1-0.9c-0.3-0.5-0.8-0.8-1.1-1.1
						C37.7,37.2,37.2,37.4,36.7,37.5z"/>
					<path class="st3" d="M37.8,32.5c1.1-1.1,2.3-2.2,3.8-3.3l0,0c-0.3-0.2-0.8-0.3-1.1-0.5c-0.8,0.6-1.6,1.4-2.3,2
						C38.1,31.4,38,31.9,37.8,32.5z"/>
					<path class="st3" d="M41.7,27.8L41.7,27.8C41.7,27.7,41.6,27.8,41.7,27.8C41.6,27.8,41.7,27.8,41.7,27.8z"/>
					<path class="st3" d="M41.6,29.2c0-0.5,0.2-0.9,0.2-1.4l0,0c-0.5,0.3-0.8,0.6-1.1,0.9C40.8,28.9,41.3,29.1,41.6,29.2z"/>
					<path class="st1" d="M38.3,36.9c0.3,0.3,0.8,0.8,1.1,1.1c0.5-0.2,0.9-0.3,1.4-0.5c0-0.6,0.2-1.3,0.2-1.9
						C40,36.1,39.1,36.6,38.3,36.9z"/>
				</g>
			</g>
		</g>
	</g>
</g>
<g>
	<g>
		<path d="M116.4,30.3h10.7v9.4h-7.6V55h-3.2C116.4,55.1,116.4,30.3,116.4,30.3z M119.7,32.6v1.5h4.4v-1.5H119.7z M119.7,36v1.5h4.4
			V36H119.7z M133.4,53.8c-3.2-1.5-4.6-4-5-4.6c-0.4,0.7-1.9,3.5-6.1,5.2l-1.7-2.7c1-0.3,3-0.9,4.8-3h-4.2v-2.4h5.5
			c0.2-0.7,0.2-1.1,0.2-1.6h-5.1v-2.4h2.3c-0.1-0.2-0.7-1.4-0.9-1.7l3.1-0.5c0.3,0.7,0.7,1.6,0.9,2.3h2.8c0.3-0.7,0.6-1.7,0.7-2.3
			l3.2,0.3c-0.2,0.7-0.8,1.7-0.9,1.9h2.5v2.4h-5.6c-0.1,0.6-0.1,1-0.2,1.6h6.1v2.4h-4.5c1.6,1.5,2.9,2.1,3.8,2.5l-0.4,0.7h1.6
			c0.8,0,0.9-0.2,0.9-0.9V39.7h-7.6v-9.4h10.8v21.8c0,1.9-0.2,2.9-2.7,2.9H135l-0.7-2.5L133.4,53.8z M132.6,32.6v1.5h4.4v-1.5H132.6
			z M132.6,36v1.5h4.4V36H132.6z"/>
		<path d="M166.8,32.7h-9.5v1h10.8v5.9h-3.4v-3.7h-7.5v5h-3.1v-5h-7.4v3.7h-3.3v-5.9H154v-1h-9v-2.5h21.8V32.7z M169,50.3
			c-0.3,3.1-0.8,4.5-2.9,4.5h-9.2c-1.5,0-2.7-0.3-2.7-1.9v-2.1H145v-9.3h21.8v8.2L169,50.3z M153.2,36.8v1.3H148v-1.3H153.2z
			 M153.2,39.1v1.4H148v-1.4H153.2z M154.2,47h-6v1.5h6V47z M154.2,43.6h-5.9V45h5.9V43.6z M163.5,43.6h-6.1V45h6.1V43.6z M163.5,47
			h-6.1v1.5h6.1V47z M164.5,52.2c0.8,0,1.1-0.1,1.1-1.4h-8.4v0.8c0,0.6,0.1,0.7,0.7,0.7L164.5,52.2L164.5,52.2z M163.8,36.8v1.3
			h-5.4v-1.3H163.8z M163.8,39.1v1.4h-5.4v-1.4H163.8z"/>
		<path d="M179.2,43.8c-3-1.8-5.5-2.6-7.9-3.4l1.3-3c1.6,0.4,4.5,1.1,8,3.1L179.2,43.8z M172.9,49.6c10.1-1,14.8-4.1,18-14.9L194,37
			c-3.7,10.9-9,15.1-20.4,16.6L172.9,49.6z M181.5,37.3c-2.9-1.5-5.2-2.3-8-3.2l1.3-3c3,0.7,5.2,1.3,8.1,2.9L181.5,37.3z"/>
		<path d="M215.7,32c-1.1,5.6-3.2,8.9-4.9,11.3c4.1,3.3,5.6,4.4,8.8,7.7l-3.1,3c-1.6-1.8-3.9-4.4-8-7.9c-2.6,2.9-6.4,6-10.5,7.9
			l-2.1-3c3.9-1.7,6.7-3.5,9.6-6.7c3-3.2,4.4-6,5.4-8.6h-13.4v-3.4h18.3V32H215.7z"/>
		<path d="M223.7,50.7c7.3-1.1,8.6-3.8,8.9-9h-10v-3.4h22.2v3.4h-8.5c-0.4,6.4-2.3,10.6-11.1,12.3L223.7,50.7z M242.7,31.6V35h-18
			v-3.4H242.7z"/>
		<path d="M245.9,49.1h2.6c0.2-0.4,2.9-7.6,5.5-18.3l3.9,0.7c-2.4,9.3-5,15.6-5.7,17.5c5.5-0.2,6-0.2,11.2-0.7
			c-1.5-3.2-3-5.3-3.9-6.6l3.2-1.5c3.1,4.1,4.9,7.3,6.7,12.1l-3.5,1.6c-0.5-1.2-0.7-1.7-1-2.5c-6.1,0.7-8.8,1-18.3,1.3L245.9,49.1z"
			/>
		<path d="M275.8,41.6c-0.5-1-2.2-4.6-4.9-7.5l3.2-1.7c2.5,2.6,4,5,5.2,7.2L275.8,41.6z M272.8,50.5c8.8-2.3,14.1-6.2,16.1-18.8
			l4,0.8c-2.2,10.6-6,18-17.8,21.1L272.8,50.5z"/>
		<path d="M302.3,45.9h-3.7V31.5h3.7V45.9z M315.5,42.4c0,9.5-8,10.8-14.4,11.4l-1.3-3.4c7.4-0.5,11.9-1.6,11.9-7.7V31h3.8V42.4z"/>
		<path d="M339.2,49.4v3.2h-19.4v-3.2h11c0.6-3.4,0.9-5.4,1.1-9.2h-9.7V37h13.3c-0.2,5.8-1.1,10.9-1.2,12.5L339.2,49.4L339.2,49.4z"
			/>
		<path d="M365.5,40.4v3.7h-23.3v-3.7H365.5z"/>
		<path d="M377,43.8c-3-1.8-5.5-2.6-7.9-3.4l1.3-3c1.6,0.4,4.5,1.1,8,3.1L377,43.8z M370.7,49.6c10.1-1,14.8-4.1,18-14.9l3.1,2.3
			c-3.7,10.9-9,15.1-20.4,16.6L370.7,49.6z M379.3,37.3c-2.9-1.5-5.2-2.3-8-3.2l1.3-3c3,0.7,5.2,1.3,8.1,2.9L379.3,37.3z"/>
		<path d="M397.3,45.9v-3h11.8v-3.6h-12.2v-3.1h15.5V53h-15.8v-3.2H409v-3.9C409,45.9,397.3,45.9,397.3,45.9z"/>
		<path d="M426.3,39.2c-1.1-0.9-4-2.6-8.4-4l1.6-3.2c2,0.6,5,1.6,8.7,3.8L426.3,39.2z M418.4,49.5c8-0.7,15.6-3.4,19.1-16.1l3.2,2.2
			c-3.3,10.1-8.8,16.4-21.5,17.8L418.4,49.5z"/>
		<path d="M461.7,35.5c-0.9,2.8-2.3,5.4-3.9,7.7c5.6,4.5,5.8,4.6,8.8,7.6l-3,3c-3.4-3.7-6-6.2-8-7.9c-3.5,3.8-7.3,6.4-10.6,7.9
			l-2.1-3c6.9-2.9,12.4-8.4,14.9-15.3h-13.5V32h15L461.7,35.5z M462.4,29.6c1.1,1.7,1.8,3.5,2.5,5.3l-2,1c-0.8-2.3-1.1-3.3-2.4-5.4
			L462.4,29.6z M466.1,28.5c1.1,1.7,1.7,3.4,2.5,5.3l-2,1c-0.7-2.3-1.1-3.4-2.3-5.4L466.1,28.5z"/>
		<path d="M484.3,36.5c-0.7,1.6-1.1,2.4-1.6,3.2l-2.9-1.9c0.1-0.1,0.2-0.2,0.2-0.3h-2.4v1.7c0.6,1.2,2.1,3.5,3.8,5.1l-2,2.8
			c-0.8-1.1-1.3-2.2-1.8-3.4v11.5h-3.2V43.7c-1,2.9-1.7,4.4-2.9,6l-1.2-4.3c1.8-2.4,3-5.3,3.8-8.1h-3.3v-3.2h3.5v-4.7h3.2v4.7h3v2.3
			c1.2-2.1,1.8-4.5,2.2-6.2l3.3,0.4c-0.2,0.8-0.3,1.3-0.7,2.7h1.7v-3.8h3.2v3.8h5.7v3.2h-5.7v3.3h6.1V43h-5.1
			c1.7,3.2,3.4,4.9,5.6,6.5l-1.5,3.7c-0.8-0.7-2.8-2.4-5.1-6.9V55H487v-8.6c-1.3,2.4-2.8,4.4-5.7,6.8l-2-3.1
			c2.3-1.5,4.7-3.6,6.7-7.1h-5.6v-3.3h6.5v-3.3L484.3,36.5L484.3,36.5z"/>
		<path d="M498.7,50.8c1.5-0.1,3.1-0.3,5.5-0.6V43h-4.9v-3.3h12.9V43h-4.7v6.8c2.3-0.3,4.1-0.7,5.6-0.9v3.3c-3.8,0.9-9,1.5-14,2.1
			L498.7,50.8z M521.1,33.6h3.2v3.3h-7.9c0.4,9.3,2.8,14,4,14c1,0,1.6-2.4,2-3.9l2.3,2.7c-0.3,1.1-1.2,5.5-3.9,5.5
			c-1.4,0-7.1-1.2-7.8-18.3h-14v-3.3h14c0-0.8-0.1-3.5-0.1-4.1h3.5c0,0.5,0,2.3,0.1,4.1h3.8c-1-1-1.9-1.8-3.1-2.5l2.4-1.7
			c1.3,0.8,2.5,1.6,3.6,2.9L521.1,33.6z"/>
		<path d="M532.4,38.3c-2.2,1.3-3.5,1.9-4.4,2.3l-1.7-3.4c6.6-2.6,9.9-5.6,11.3-7.8h3.8c1.4,1.8,4.1,4.9,11.2,7.8l-1.7,3.4
			c-0.9-0.4-2.2-1-4.3-2.3v1.5h-14.3L532.4,38.3L532.4,38.3z M548.2,55.3c-0.3-0.6-0.5-1-1.1-1.9c-3.5,0.4-8,1-18.9,1.1l-0.5-3.4
			c0.4,0,3.3,0,3.9,0c0.8-1.5,1.7-3.7,2.3-5.7h-6.5v-3.2h24.1v3.2h-13.7c-1.1,2.4-1.7,3.9-2.6,5.6c0.9,0,5.4-0.1,9.9-0.5
			c-0.6-0.9-1.3-1.7-2.8-3.4l2.9-1.5c3.1,3.1,5.4,6.9,5.9,7.8L548.2,55.3z M544.6,36.7c-3-2.2-4.3-3.7-5-4.6
			c-1.3,1.8-3.3,3.4-4.9,4.6H544.6z"/>
		<path d="M561.9,55.1h-3.4v-9.8c-1.3,1.2-2.3,1.9-3.1,2.4l-1.2-3.7c3.1-1.9,5.8-4.9,7-7.3h-6.5v-3.2h3.8v-4h3.4v4h3v3.2
			c-1,1.9-1.6,3.2-2.5,4.2c1.7,2,3,2.7,3.7,3.2l-1.6,3.2c-0.9-0.8-1.7-1.5-2.6-2.8L561.9,55.1L561.9,55.1z M570.6,29.5h3.4v7.3h5.6
			v3.4H574v10.6h6.1v3.4H564v-3.4h6.6V40.2h-5.4v-3.4h5.4V29.5L570.6,29.5z"/>
	</g>
</g>
</svg>
